<svg xmlns="http://www.w3.org/2000/svg" xmlns:xlink="http://www.w3.org/1999/xlink" version="1.1" width="256" height="256" viewBox="0 0 256 256" xml:space="preserve">

<defs>
</defs>
<g style="stroke: none; stroke-width: 0; stroke-dasharray: none; stroke-linecap: butt; stroke-linejoin: miter; stroke-miterlimit: 10; fill: rgb(231,224,224); fill-rule: nonzero; opacity: 1;" transform="translate(0 -2.842170943040401e-14) scale(2.81 2.81)" >
	<circle cx="45" cy="45" r="45" style="stroke: none; stroke-width: 1; stroke-dasharray: none; stroke-linecap: butt; stroke-linejoin: miter; stroke-miterlimit: 10; fill: rgb(231,224,224); fill-rule: nonzero; opacity: 1;" transform="  matrix(1 0 0 1 0 0) "/>
</g>
<g style="stroke: none; stroke-width: 0; stroke-dasharray: none; stroke-linecap: butt; stroke-linejoin: miter; stroke-miterlimit: 10; fill: none; fill-rule: nonzero; opacity: 1;" transform="translate(46.17984832069338 46.17984832069335) scale(1.82 1.82)" >
	<circle cx="44.997" cy="22.407" r="6.967" style="stroke: none; stroke-width: 1; stroke-dasharray: none; stroke-linecap: butt; stroke-linejoin: miter; stroke-miterlimit: 10; fill: rgb(59,99,155); fill-rule: nonzero; opacity: 1;" transform="  matrix(1 0 0 1 0 0) "/>
	<circle cx="67.667" cy="34.687" r="6.967" style="stroke: none; stroke-width: 1; stroke-dasharray: none; stroke-linecap: butt; stroke-linejoin: miter; stroke-miterlimit: 10; fill: rgb(233,96,105); fill-rule: nonzero; opacity: 1;" transform="  matrix(1 0 0 1 0 0) "/>
	<circle cx="23.276999999999997" cy="34.687" r="6.967" style="stroke: none; stroke-width: 1; stroke-dasharray: none; stroke-linecap: butt; stroke-linejoin: miter; stroke-miterlimit: 10; fill: rgb(214,186,95); fill-rule: nonzero; opacity: 1;" transform="  matrix(1 0 0 1 0 0) "/>
	<circle cx="25.166999999999998" cy="59.237" r="6.967" style="stroke: none; stroke-width: 1; stroke-dasharray: none; stroke-linecap: butt; stroke-linejoin: miter; stroke-miterlimit: 10; fill: rgb(128,188,142); fill-rule: nonzero; opacity: 1;" transform="  matrix(1 0 0 1 0 0) "/>
	<path d="M 85.538 75.831 L 62.524 54.142 c 0.176 -2.429 -0.839 -5.02 -3.074 -7.126 c -6.641 -6.258 -13.565 -7.473 -19.229 -7.499 c 0.362 5.653 1.985 12.493 8.625 18.751 c 2.234 2.106 4.881 2.965 7.296 2.646 c 0 0 0 0 0 0 l 23.014 21.689 c 1.87 1.762 4.815 1.675 6.577 -0.195 C 87.496 80.538 87.408 77.593 85.538 75.831 z" style="stroke: none; stroke-width: 1; stroke-dasharray: none; stroke-linecap: butt; stroke-linejoin: miter; stroke-miterlimit: 10; fill: rgb(143,143,158); fill-rule: nonzero; opacity: 1;" transform=" matrix(1 0 0 1 0 0) " stroke-linecap="round" />
	<path d="M 54.073 72.131 c -0.01 0 -0.02 0 -0.029 0 l -0.162 0.001 c -1.753 0 -3.379 -0.705 -4.579 -1.984 c -1.198 -1.278 -1.795 -2.952 -1.681 -4.713 c 0.057 -0.89 0.321 -1.739 0.75 -2.507 c -0.793 -0.5 -1.556 -1.078 -2.269 -1.749 c -0.797 -0.751 -1.541 -1.524 -2.24 -2.319 c -1.295 1.804 -2.082 3.923 -2.229 6.188 c -0.222 3.433 0.947 6.701 3.292 9.202 c 2.312 2.467 5.576 3.882 8.956 3.882 l 0.216 -0.001 c 0.267 0 0.845 -0.003 0.937 0.803 c 0.094 0.815 -0.532 0.958 -0.737 1.005 c -2.743 0.626 -5.784 0.931 -9.297 0.931 C 23.495 80.869 6 64.778 6 45 C 6 25.221 23.495 9.13 45 9.13 S 84 25.221 84 45 v 0.116 c -0.008 4.67 -3.813 8.469 -8.482 8.469 h -7.752 l 6.366 6 h 1.386 c 7.972 0 14.469 -6.486 14.482 -14.464 V 45 C 90 21.913 69.813 3.13 45 3.13 C 20.187 3.13 0 21.913 0 45 s 20.187 41.869 45 41.869 c 3.968 0 7.445 -0.354 10.633 -1.081 c 3.516 -0.803 5.771 -3.973 5.362 -7.538 C 60.588 74.7 57.692 72.131 54.073 72.131 z" style="stroke: none; stroke-width: 1; stroke-dasharray: none; stroke-linecap: butt; stroke-linejoin: miter; stroke-miterlimit: 10; fill: rgb(143,143,158); fill-rule: nonzero; opacity: 1;" transform=" matrix(1 0 0 1 0 0) " stroke-linecap="round" />
</g>
</svg>